<svg xmlns="http://www.w3.org/2000/svg" viewBox="0 0 310.39 206.29"><title>Fichier 14</title><g id="Calque_2" data-name="Calque 2"><g id="Calque_1-2" data-name="Calque 1"><path d="M240.3,16.94C189.94-10.64,143,3.15,123.43,5.69,72.37,12.32-1.09,66.39,0,121.45,1.18,180,89,211.1,164.18,205.68c67-4.82,147.34-36.05,146.2-96.84C309.38,55.83,247.67,21,240.3,16.94ZM71.1,119.87a33.2,33.2,0,0,1-24.86.09c-8.21-3.17-13.72-8.88-14.38-18s3.67-16.09,11.52-20.57,16.48-5.08,25.06-2.12A20.51,20.51,0,0,1,81.92,93c.5,1.56,2.51,4.27-.46,4.88-2.38.48-6.22,2.2-7.3-2.47,0-.16-.08-.32-.13-.48-3.44-10-10.48-15.08-18.74-13.46-8.72,1.7-15.56,10.63-15.14,19.75s7.43,16.1,17.19,16.92c8.83.74,16.48-1.47,21.93-9,1.1-1.53,1.18-1.47,4.22-1.37C81.41,113.93,76.84,117.61,71.1,119.87ZM103,122.18c-9.34,0-17.06-6-17-13.35,0-7.5,8.08-13.52,17.63-13.17,9.37.33,16.48,6.25,16.27,13.52S112.1,122.15,103,122.18Zm52.64-.87c-2.5.09-5,.14-7.49,0-1.79-.09-2.37-1.12-1.33-2.69,3.16-4.75.18-10.42,2.45-15.47.94-2.09-3.86-4.45-7.46-3.73-7.39,1.47-12.63,11.24-9,18.16,2.09,4,.11,3.76-2.51,3.83-1.5,0-3,.06-4.5,0-1.8-.1-3.44-.19-2.13-2.89a22.47,22.47,0,0,0,.67-17.43c-2.9-7.3,2-4.36,5.09-5.22,4.33,1.86,9,.72,14,0,7.65-1.13,11.64,3.14,12,10.92.16,4.19-1.37,8.64,1.71,12.53C157.68,120.19,156.83,121.27,155.61,121.31Zm19.65.42a17.93,17.93,0,0,1-2.75.47c-6.61,0-9.64-2.89-9.83-8.76-.09-2.66,0-5.33,0-8s.77-6-3.85-5.77a1.48,1.48,0,0,1-1.57-1.58,3.06,3.06,0,0,1,.67-1.64c5,1,5-4.72,8.34-6.12,2.23-.93,3.59-1.84,3.33,1.24-.39,4.58,2.17,4.7,5.49,4.61,1.37,0,3.83-1,3.76,1.74-.07,2.5-2.43,2-3.87,1.82-4.8-.63-5.54,1.88-5.33,5.88.15,2.77,1.06,5.9-2.61,7.78-1.43.73-.75,2.8.51,3.87,1.79,1.52,3.89,2,6,.59,1.62-1.13,1.74-2.78.7-4.39-.64-1-2.73-1.56-1.51-3.11,1.06-1.35,2.85-.52,4.21-.11,2.6.79,4.38,2.47,4.17,5.44C180.79,119.25,178.32,120.84,175.26,121.73Zm41.42-.43c-7.26-2-14.25,1.67-21.42.79a20.48,20.48,0,0,1-7.61-2.21,14.34,14.34,0,0,1-3.87-3.78c-3.24-4,1.63-7.36.38-11.8-1.35-4.8,4.48-6.54,8.64-7.8a43.37,43.37,0,0,1,6.39-1c3.48.27,7,.35,10.26,1.78,4.85,2.11,7.67,5.4,7.6,11.08-.05,3.52-1.09,7.24,1.45,10.59C219.7,120.55,218.06,121.7,216.68,121.3Zm37.43-5.58A16.79,16.79,0,0,1,240,122.21a22.81,22.81,0,0,1-10.93-2.31c-8.48-4.23-9.58-14-2.31-20.05,8.06-6.67,21.52-5.32,26.58,2.8,1,1.58,3.48,4,.72,5.38-2.18,1.1-5.28,1.36-6.82-2.55-2.33-5.92-6.56-7.78-11.32-5.87a10.69,10.69,0,0,0-5.83,12.88c2.17,6.35,11.67,8.32,18.39,3.76,1.22-.83,2.24-2,3.39-2.92,1-.79,2.21-1.33,3.17-.44C256.34,114.13,254.73,114.94,254.11,115.72Zm18.43,6.09a15.54,15.54,0,0,1-2.46.38c-6.6.11-9.73-2.83-9.95-9-.09-2.33,0-4.66-.05-7-.11-2.93,1.16-6.61-4.06-6.71-1.48,0-1.73-2.88-.68-2.82,5,.25,5.26-5,8.68-6.63,2.42-1.14,3.24-.73,3,1.48-.44,4.47,2.06,4.78,5.45,4.64,1.39-.06,3.81-1,3.92,1.6s-2.26,2.15-3.73,2c-4.42-.54-6,1.21-5.6,5.6.27,3,.84,6.18-2.71,8.3-1.35.81-.43,2.82.88,3.8,1.88,1.41,4,1.87,5.95.23a2.87,2.87,0,0,0,.3-4.41c-.71-.83-2.28-1.35-1.45-2.75s2.45-.7,3.64-.45c2.85.61,5,2.2,4.9,5.38C278.48,119.23,275.78,120.88,272.54,121.81Z"/><path d="M198.06,107.84c3.18.06,6.29.49,9,2.3s2.67,3.81.22,5.57a14.6,14.6,0,0,1-12.7,2.53c-3.05-.81-5-2.69-4.7-6s2.93-4,5.7-4.34A22.6,22.6,0,0,1,198.06,107.84Z"/><path d="M211,103.72c-.8,1.36-1.73,3-3.63,2.42-5-1.45-9.95-2.45-15.18-1.69-1.55.23-2.41-.73-1.19-2,2.84-3.08,6.7-3.42,10.56-3.21,3.34.19,6.62.77,9,3.48A3.76,3.76,0,0,1,211,103.72Z"/><path d="M102,99.08a9.65,9.65,0,0,1,9.73,9.28c.23,5.3-4.23,10.22-9.36,10.34s-9.71-4.59-9.69-10A9.54,9.54,0,0,1,102,99.08Z"/></g></g></svg>